<?xml version="1.0" encoding="UTF-8" standalone="no"?>
<svg
   width="497.16208"
   zoomAndPan="magnify"
   viewBox="0 0 372.87156 83.312501"
   height="111.08334"
   preserveAspectRatio="xMidYMid"
   version="1.0"
   id="svg255"
   xmlns="http://www.w3.org/2000/svg"
   xmlns:svg="http://www.w3.org/2000/svg">
  <defs
     id="defs12">
    <clipPath
       id="5d7f9cc167">
      <path
         d="m 196.41406,26 h 41.65625 v 58.296875 h -41.65625 z m 0,0"
         clip-rule="nonzero"
         id="path7" />
    </clipPath>
    <clipPath
       id="7757137f1c">
      <path
         d="m 196.41406,0.984375 h 41.65625 V 59 h -41.65625 z m 0,0"
         clip-rule="nonzero"
         id="path8" />
    </clipPath>
    <clipPath
       id="fb9bc54279">
      <rect
         x="0"
         width="379"
         y="0"
         height="85"
         id="rect8" />
    </clipPath>
  </defs>
  <g
     transform="translate(-3.769691,-0.984375)"
     id="g137">
    <g
       clip-path="url(#fb9bc54279)"
       id="g136">
      <g
         clip-path="url(#5d7f9cc167)"
         id="g98">
        <path
           fill="#00b6ff"
           d="m 206.83203,47.832031 v 15.628907 c 0,5.753906 4.66406,10.417968 10.41797,10.417968 5.75391,0 10.41797,-4.664062 10.41797,-10.417968 h 10.42187 c 0,11.507812 -9.33203,20.835937 -20.83984,20.835937 -11.50781,0 -20.83594,-9.328125 -20.83594,-20.835937 V 47.832031 c 0,-11.507812 9.32813,-20.839843 20.83594,-20.839843 h 5.21094 V 37.410156 H 217.25 c -5.75391,0 -10.41797,4.667969 -10.41797,10.421875 z m 0,0"
           fill-opacity="1"
           fill-rule="evenodd"
           id="path97" />
      </g>
      <g
         clip-path="url(#7757137f1c)"
         id="g99">
        <path
           fill="#00b6ff"
           d="M 227.66797,37.410156 V 21.78125 c 0,-5.753906 -4.66406,-10.417969 -10.41797,-10.417969 -5.75391,0 -10.41797,4.664063 -10.41797,10.417969 h -10.41797 c 0,-11.507812 9.32813,-20.835938 20.83594,-20.835938 11.50781,0 20.83984,9.328126 20.83984,20.835938 V 37.410156 C 238.08984,48.921875 228.75781,58.25 217.25,58.25 h -5.20703 V 47.832031 H 217.25 c 5.75391,0 10.41797,-4.664062 10.41797,-10.421875 z m 0,0"
           fill-opacity="1"
           fill-rule="evenodd"
           id="path98" />
      </g>
      <g
         fill="#00b6ff"
         fill-opacity="1"
         id="g102">
        <g
           transform="translate(243.01283,55.56396)"
           id="g101">
          <g
             id="g100">
            <path
               d="m 17.84375,-30.25 v 18.65625 c 0,4.886719 -0.433594,8.140625 -1.296875,9.765625 -0.855469,1.617187 -2.851563,2.421875 -5.984375,2.421875 -2.011719,0 -4.742188,-0.484375 -8.1875,-1.453125 l 0.96875,-4.59375 c 1.6875,0.511719 3.375,0.875 5.0625,1.09375 1.695312,0.210937 2.757812,-0.125 3.1875,-1 0.425781,-0.882813 0.640625,-3 0.640625,-6.34375 V -30.25 H 4.09375 v -5.0625 H 21.1875 v 5.0625 z m 0,0"
               id="path99" />
          </g>
        </g>
      </g>
      <g
         fill="#00b6ff"
         fill-opacity="1"
         id="g105">
        <g
           transform="translate(269.97462,55.56396)"
           id="g104">
          <g
             id="g103">
            <path
               d="m 5.015625,-22.78125 c 1.832031,-2.175781 4.65625,-3.265625 8.46875,-3.265625 3.8125,0 6.632813,1.089844 8.46875,3.265625 1.832031,2.179688 2.75,5.53125 2.75,10.0625 0,4.523438 -0.917969,7.890625 -2.75,10.109375 -1.835937,2.210937 -4.65625,3.3125 -8.46875,3.3125 -3.8125,0 -6.636719,-1.101563 -8.46875,-3.3125 -1.835937,-2.21875 -2.75,-5.585937 -2.75,-10.109375 0,-4.53125 0.914063,-7.882812 2.75,-10.0625 z m 4.328125,3.859375 c -0.730469,1.25 -1.09375,3.320313 -1.09375,6.203125 0,2.875 0.375,4.960938 1.125,6.25 0.757812,1.292969 2.128906,1.9375 4.109375,1.9375 1.976563,0 3.34375,-0.644531 4.09375,-1.9375 0.75,-1.289062 1.125,-3.375 1.125,-6.25 0,-2.882812 -0.371094,-4.953125 -1.109375,-6.203125 -0.730469,-1.257813 -2.105469,-1.890625 -4.125,-1.890625 -2.011719,0 -3.386719,0.632812 -4.125,1.890625 z m 0,0"
               id="path102" />
          </g>
        </g>
      </g>
      <g
         fill="#00b6ff"
         fill-opacity="1"
         id="g108">
        <g
           transform="translate(296.93641,55.56396)"
           id="g107">
          <g
             id="g106">
            <path
               d="M 1.78125,-25.609375 H 7.703125 L 13.15625,-4.90625 H 14.125 l 5.234375,-20.703125 h 5.875 L 18.390625,0 h -9.59375 z m 0,0"
               id="path105" />
          </g>
        </g>
      </g>
      <g
         fill="#00b6ff"
         fill-opacity="1"
         id="g111">
        <g
           transform="translate(323.89821,55.56396)"
           id="g110">
          <g
             id="g109">
            <path
               d="m 2.640625,-12.78125 c 0,-4.34375 0.96875,-7.640625 2.90625,-9.890625 1.945313,-2.25 4.644531,-3.375 8.09375,-3.375 3.445313,0 6.113281,1.015625 8,3.046875 1.894531,2.03125 2.878906,5.007812 2.953125,8.921875 l -0.21875,4 H 8.625 c 0.320312,3.875 2.265625,5.8125 5.828125,5.8125 2.476563,0 5.101563,-0.445313 7.875,-1.34375 l 1.125,4.6875 c -1.148437,0.398437 -2.636719,0.746094 -4.46875,1.046875 -1.835937,0.3125 -3.34375,0.46875 -4.53125,0.46875 -7.875,0 -11.8125,-4.457031 -11.8125,-13.375 z m 11.21875,-8.25 c -1.6875,0 -2.953125,0.496094 -3.796875,1.484375 -0.84375,0.992187 -1.324219,2.636719 -1.4375,4.9375 h 9.984375 c 0,-4.28125 -1.585937,-6.421875 -4.75,-6.421875 z m 0,0"
               id="path108" />
          </g>
        </g>
      </g>
      <g
         fill="#00b6ff"
         fill-opacity="1"
         id="g114">
        <g
           transform="translate(350.86,55.56396)"
           id="g113">
          <g
             id="g112">
            <path
               d="m 6.53125,-25.609375 0.15625,1.453125 c 1.363281,-1.257812 2.691406,-1.890625 3.984375,-1.890625 1.832031,0 3.21875,0.683594 4.15625,2.046875 1.863281,-1.363281 3.519531,-2.046875 4.96875,-2.046875 2.15625,0 3.691406,0.632813 4.609375,1.890625 0.914062,1.261719 1.375,3.601562 1.375,7.015625 V 0 h -5.5 v -14.78125 c 0,-3.300781 -0.292969,-5.203125 -0.875,-5.703125 -0.28125,-0.289063 -0.695312,-0.4375 -1.234375,-0.4375 -0.542969,0 -1.226563,0.359375 -2.046875,1.078125 0.175781,0.824219 0.265625,2.511719 0.265625,5.0625 v 5.984375 h -5.4375 v -5.984375 c 0,-3.269531 -0.199219,-5.171875 -0.59375,-5.703125 -0.21875,-0.289063 -0.589844,-0.4375 -1.109375,-0.4375 -0.523438,0 -1.304688,0.398437 -2.34375,1.1875 V 0 H 1.234375 v -25.609375 z m 0,0"
               id="path111" />
          </g>
        </g>
      </g>
      <g
         fill="#ffffff"
         fill-opacity="1"
         id="g117">
        <g
           transform="translate(0.800941,55.56396)"
           id="g116">
          <g
             id="g115">
            <path
               d="m 15.15625,0.546875 c -4.105469,0 -7.164062,-1.4375 -9.171875,-4.3125 C 3.972656,-6.648438 2.96875,-11.269531 2.96875,-17.625 c 0,-6.363281 0.96875,-10.992188 2.90625,-13.890625 1.945312,-2.894531 5.054688,-4.34375 9.328125,-4.34375 2.800781,0 5.625,0.449219 8.46875,1.34375 v 7.125 h -2.96875 V -32.1875 c -1.585937,-0.570312 -3.417969,-0.859375 -5.5,-0.859375 -3.230469,0 -5.546875,1.203125 -6.953125,3.609375 -1.40625,2.40625 -2.109375,6.308594 -2.109375,11.703125 0,5.386719 0.753906,9.304687 2.265625,11.75 1.507812,2.449219 3.773438,3.671875 6.796875,3.671875 2.269531,0 4.96875,-0.488281 8.09375,-1.46875 L 24,-0.96875 c -2.949219,1.0078125 -5.898438,1.515625 -8.84375,1.515625 z m 0,0"
               id="path114" />
          </g>
        </g>
      </g>
      <g
         fill="#ffffff"
         fill-opacity="1"
         id="g120">
        <g
           transform="translate(27.762734,55.56396)"
           id="g119">
          <g
             id="g118">
            <path
               d="m 3.1875,-12.71875 c 0,-8.8125 3.429688,-13.21875 10.296875,-13.21875 6.863281,0 10.296875,4.40625 10.296875,13.21875 0,8.804688 -3.433594,13.203125 -10.296875,13.203125 C 6.617188,0.484375 3.1875,-3.914062 3.1875,-12.71875 Z M 13.46875,-23.125 c -4.8125,0 -7.21875,3.46875 -7.21875,10.40625 0,6.9375 2.40625,10.40625 7.21875,10.40625 4.820312,0 7.234375,-3.46875 7.234375,-10.40625 0,-6.9375 -2.414063,-10.40625 -7.234375,-10.40625 z m 0,0"
               id="path117" />
          </g>
        </g>
      </g>
      <g
         fill="#ffffff"
         fill-opacity="1"
         id="g123">
        <g
           transform="translate(54.724526,55.56396)"
           id="g122">
          <g
             id="g121">
            <path
               d="m 6.84375,-25.609375 0.109375,2.15625 c 3.488281,-1.65625 6.382813,-2.484375 8.6875,-2.484375 2.300781,0 4.109375,0.792969 5.421875,2.375 1.3125,1.585938 1.96875,3.742188 1.96875,6.46875 V 0 h -2.859375 v -17.09375 c 0,-1.757812 -0.433594,-3.210938 -1.296875,-4.359375 -0.867188,-1.113281 -2.164062,-1.671875 -3.890625,-1.671875 -1.71875,0 -4.398437,0.789062 -8.03125,2.359375 V 0 H 4.09375 v -25.609375 z m 0,0"
               id="path120" />
          </g>
        </g>
      </g>
      <g
         fill="#ffffff"
         fill-opacity="1"
         id="g126">
        <g
           transform="translate(81.686319,55.56396)"
           id="g125">
          <g
             id="g124">
            <path
               d="m 3.609375,-12.78125 c 0,-4.132812 0.851563,-7.359375 2.5625,-9.671875 1.707031,-2.320313 4.195313,-3.484375 7.46875,-3.484375 3.269531,0 5.703125,1.078125 7.296875,3.234375 1.601562,2.15625 2.40625,5.03125 2.40625,8.625 L 23.1875,-11.375 h -16.5 c 0.175781,2.699219 0.894531,4.886719 2.15625,6.5625 1.257812,1.667969 2.992188,2.5 5.203125,2.5 2.207031,0 4.804687,-0.519531 7.796875,-1.5625 l 0.796875,2.6875 c -2.90625,1.1171875 -5.636719,1.671875 -8.1875,1.671875 -3.523437,0 -6.210937,-1.175781 -8.0625,-3.53125 -1.855469,-2.351563 -2.78125,-5.597656 -2.78125,-9.734375 z m 10.25,-10.40625 c -4.53125,0 -6.921875,3.039062 -7.171875,9.109375 h 13.59375 c 0,-6.070313 -2.140625,-9.109375 -6.421875,-9.109375 z m 0,0"
               id="path123" />
          </g>
        </g>
      </g>
      <g
         fill="#ffffff"
         fill-opacity="1"
         id="g129">
        <g
           transform="translate(108.64811,55.56396)"
           id="g128">
          <g
             id="g127">
            <path
               d="m 19.359375,-17.25 v -5.34375 c -1.761719,-0.394531 -3.164063,-0.59375 -4.203125,-0.59375 -2.59375,0 -4.53125,0.917969 -5.8125,2.75 -1.273438,1.835938 -1.90625,4.371094 -1.90625,7.609375 0,3.230469 0.644531,5.792969 1.9375,7.6875 1.300781,1.886719 3.226562,2.828125 5.78125,2.828125 1.613281,0 3.859375,-0.503906 6.734375,-1.515625 l 0.8125,2.703125 c -2.84375,1.0742188 -5.34375,1.609375 -7.5,1.609375 -3.523437,0 -6.210937,-1.175781 -8.0625,-3.53125 C 5.296875,-5.398438 4.375,-8.679688 4.375,-12.890625 c 0,-4.207031 0.914062,-7.429687 2.75,-9.671875 1.832031,-2.25 4.523438,-3.375 8.078125,-3.375 2.375,0 4.726563,0.382812 7.0625,1.140625 V -17.25 Z m 0,0"
               id="path126" />
          </g>
        </g>
      </g>
      <g
         fill="#ffffff"
         fill-opacity="1"
         id="g132">
        <g
           transform="translate(135.6099,55.56396)"
           id="g131">
          <g
             id="g130">
            <path
               d="M 8.625,-22.546875 H 4.09375 v -2.6875 H 8.625 V -31.4375 l 2.859375,-0.53125 v 6.734375 h 10.25 v 2.6875 h -10.25 v 12.625 c 0,2.804687 0.273437,4.78125 0.828125,5.9375 0.5625,1.148437 1.703125,1.71875 3.421875,1.71875 1.726563,0 3.632813,-0.34375 5.71875,-1.03125 l 0.65625,2.703125 C 20.023438,0.164062 18.082031,0.546875 16.28125,0.546875 14.488281,0.546875 13.078125,0.3125 12.046875,-0.15625 11.023438,-0.625 10.269531,-1.367188 9.78125,-2.390625 9.300781,-3.421875 8.988281,-4.472656 8.84375,-5.546875 8.695312,-6.628906 8.625,-8.050781 8.625,-9.8125 Z m 0,0"
               id="path129" />
          </g>
        </g>
      </g>
      <g
         fill="#ffffff"
         fill-opacity="1"
         id="g135">
        <g
           transform="translate(162.5717,55.56396)"
           id="g134">
          <g
             id="g133">
            <path
               d="m 11.75,-2.3125 c 1.332031,0 2.78125,-0.421875 4.34375,-1.265625 1.5625,-0.851563 2.703125,-1.640625 3.421875,-2.359375 v -6.40625 c -2.375,-0.1875 -4.640625,-0.28125 -6.796875,-0.28125 -2.15625,0 -3.777344,0.460938 -4.859375,1.375 C 6.785156,-10.332031 6.25,-9.097656 6.25,-7.546875 c 0,3.492187 1.832031,5.234375 5.5,5.234375 z m -0.04687,2.796875 c -2.625,0 -4.695313,-0.671875 -6.203125,-2.015625 -1.511719,-1.351562 -2.265625,-3.269531 -2.265625,-5.75 0,-2.476562 0.828125,-4.398438 2.484375,-5.765625 1.65625,-1.40625 3.847656,-2.109375 6.578125,-2.109375 2.726563,0 5.132813,0.109375 7.21875,0.328125 0,-3.195313 -0.398437,-5.378906 -1.1875,-6.546875 -0.792969,-1.164062 -2.390625,-1.75 -4.796875,-1.75 -2.40625,0 -5.246094,0.574219 -8.515625,1.71875 l -0.8125,-2.703125 c 3.34375,-1.21875 6.363281,-1.828125 9.0625,-1.828125 3.5625,0 5.96875,0.792969 7.21875,2.375 1.257813,1.585938 1.890625,4.351562 1.890625,8.296875 V -3.9375 l 0.4375,4.09375 -2.75,0.28125 -0.546875,-3.234375 c -0.824219,0.71875 -1.992187,1.449219 -3.5,2.1875 -1.511719,0.726563 -2.949219,1.09375 -4.3125,1.09375 z m 0,0"
               id="path132" />
          </g>
        </g>
      </g>
    </g>
  </g>
</svg>
